<svg xmlns="http://www.w3.org/2000/svg" xmlns:xlink="http://www.w3.org/1999/xlink" version="1.1" x="0px" y="0px" viewBox="0 0 100 125" enable-background="new 0 0 100 100" xml:space="preserve"><path d="M55.4,82c3,3,3,7.8,0,10.8c-3,3-7.8,3-10.8,0c-3-3-3-7.8,0-10.8C47.6,79,52.4,79,55.4,82z M60.7,15.7c0-2.7-1-5.5-3.1-7.6  c-4.2-4.2-11-4.2-15.1,0c-2.1,2.1-3.1,4.9-3.1,7.6c0,0,0,0.1,0,0.1L43.9,67c0,3.4,2.7,6.1,6.1,6.1c3.4,0,6.1-2.7,6.1-6.1l4.6-51.2  C60.7,15.8,60.7,15.8,60.7,15.7z"/><text x="0" y="115" fill="#000000" font-size="5px" font-weight="bold" font-family="'Helvetica Neue', Helvetica, Arial-Unicode, Arial, Sans-serif">Created by Philipp Koerner</text><text x="0" y="120" fill="#000000" font-size="5px" font-weight="bold" font-family="'Helvetica Neue', Helvetica, Arial-Unicode, Arial, Sans-serif">from the Noun Project</text></svg>