<?xml version="1.0" encoding="UTF-8" standalone="no"?>
<!DOCTYPE svg PUBLIC "-//W3C//DTD SVG 1.1//EN" "http://www.w3.org/Graphics/SVG/1.1/DTD/svg11.dtd">
<svg version="1.1" xmlns="http://www.w3.org/2000/svg" xmlns:xlink="http://www.w3.org/1999/xlink" preserveAspectRatio="xMidYMid meet" viewBox="0 0 640 640" width="640" height="640"><defs><path d="M80.25 151.88C80.25 191.5 112.38 223.5 151.88 223.5C191.5 223.5 223.5 191.38 223.5 151.88C223.63 112.25 191.5 80.25 151.88 80.25C112.25 80.25 80.25 112.38 80.25 151.88ZM105.63 151.88C105.63 126.38 126.38 105.63 151.88 105.63C177.38 105.63 198.13 126.38 198.13 151.88C198.13 177.38 177.5 198.13 151.88 198.13C126.38 198.13 105.63 177.38 105.63 151.88Z" id="d35isuoSc8"></path><path d="M254.75 15.13C241.34 14.99 134.04 13.89 120.63 13.75C92 13.75 64.63 24.13 45 45C24.13 64.63 13.75 92 13.75 120.63C13.88 134.05 14.88 241.45 15 254.88C16.25 273.13 22.88 291.38 37.13 305.75C58.5 327.12 165.38 433.95 357.75 626.25L626.25 357.75L305.63 37.25C284.79 22.5 267.83 15.13 254.75 15.13ZM54.12 287.38C45 278.25 39.75 266.5 39.75 253.5C39.62 240.21 38.62 133.91 38.5 120.63C38.5 99.75 47.62 78.88 62 63.25C77.62 47.63 98.5 38.5 120.62 38.5C133.91 38.63 240.21 39.63 253.5 39.75C266.5 39.75 278.25 45 287.37 54.13C307.53 74.28 408.32 175.08 589.75 356.5L356.5 589.75C175.07 408.33 74.28 307.53 54.12 287.38Z" id="f9IRmJIfnB"></path></defs><g><g><g><use xlink:href="#d35isuoSc8" opacity="1" fill="#ffffff" fill-opacity="1"></use><g><use xlink:href="#d35isuoSc8" opacity="1" fill-opacity="0" stroke="#ffffff" stroke-width="1" stroke-opacity="0"></use></g></g><g><use xlink:href="#f9IRmJIfnB" opacity="1" fill="#ffffff" fill-opacity="1"></use><g><use xlink:href="#f9IRmJIfnB" opacity="1" fill-opacity="0" stroke="#ffffff" stroke-width="0" stroke-opacity="0"></use></g></g></g></g></svg>