<?xml version="1.0" encoding="UTF-8" standalone="no" ?>
<!DOCTYPE svg PUBLIC "-//W3C//DTD SVG 1.1//EN" "http://www.w3.org/Graphics/SVG/1.1/DTD/svg11.dtd">
<svg xmlns="http://www.w3.org/2000/svg" xmlns:xlink="http://www.w3.org/1999/xlink" version="1.1" width="640" height="480" viewBox="0 0 640 480" xml:space="preserve">
<desc>Created with Fabric.js 3.6.6</desc>
<defs>
</defs>
<g transform="matrix(1 0 0 1 10.5 8.64)"  >
<path style="stroke: none; stroke-width: 1; stroke-dasharray: none; stroke-linecap: butt; stroke-dashoffset: 0; stroke-linejoin: miter; stroke-miterlimit: 4; fill: rgb(255,255,255); fill-rule: nonzero; opacity: 1;"  transform=" translate(-12, -11.99)" d="M 22 5.8 a 8.49 8.49 0 0 1 -2.36 0.64 a 4.13 4.13 0 0 0 1.81 -2.27 a 8.21 8.21 0 0 1 -2.61 1 a 4.1 4.1 0 0 0 -7 3.74 A 11.64 11.64 0 0 1 3.39 4.62 a 4.16 4.16 0 0 0 -0.55 2.07 A 4.09 4.09 0 0 0 4.66 10.1 A 4.05 4.05 0 0 1 2.8 9.59 v 0.05 a 4.1 4.1 0 0 0 3.3 4 A 3.93 3.93 0 0 1 5 13.81 a 4.9 4.9 0 0 1 -0.77 -0.07 a 4.11 4.11 0 0 0 3.83 2.84 A 8.22 8.22 0 0 1 3 18.34 a 7.93 7.93 0 0 1 -1 -0.06 a 11.57 11.57 0 0 0 6.29 1.85 A 11.59 11.59 0 0 0 20 8.45 c 0 -0.17 0 -0.35 0 -0.53 A 8.43 8.43 0 0 0 22 5.8 Z" stroke-linecap="round" />
</g>
</svg>