<svg width="512" height="512" viewBox="0 0 512 512" fill="none" xmlns="http://www.w3.org/2000/svg">
<rect width="512" height="512" fill="#2F3E46"/>
<path d="M203.142 297L201.223 289.77H202.205L203.304 294.51C203.423 295.006 203.525 295.499 203.61 295.989C203.794 295.216 203.903 294.771 203.936 294.653L205.312 289.77H206.466L207.501 293.429C207.761 294.337 207.948 295.19 208.063 295.989C208.155 295.532 208.275 295.008 208.423 294.416L209.558 289.77H210.519L208.537 297H207.615L206.091 291.491C205.963 291.031 205.887 290.748 205.864 290.643C205.788 290.975 205.718 291.258 205.652 291.491L204.118 297H203.142ZM214.701 295.313L215.619 295.427C215.474 295.963 215.206 296.379 214.815 296.675C214.424 296.97 213.924 297.118 213.316 297.118C212.55 297.118 211.941 296.883 211.491 296.413C211.044 295.94 210.82 295.277 210.82 294.426C210.82 293.545 211.047 292.861 211.501 292.374C211.954 291.888 212.543 291.644 213.266 291.644C213.967 291.644 214.539 291.883 214.982 292.359C215.426 292.836 215.648 293.507 215.648 294.371C215.648 294.424 215.647 294.503 215.643 294.608H211.737C211.77 295.184 211.933 295.624 212.226 295.93C212.518 296.236 212.883 296.388 213.321 296.388C213.646 296.388 213.924 296.303 214.154 296.132C214.384 295.961 214.567 295.688 214.701 295.313ZM211.787 293.878H214.711C214.672 293.438 214.56 293.107 214.376 292.887C214.093 292.545 213.727 292.374 213.276 292.374C212.868 292.374 212.525 292.511 212.245 292.783C211.969 293.056 211.816 293.421 211.787 293.878ZM217.557 297H216.733V289.77H217.621V292.349C217.996 291.879 218.474 291.644 219.056 291.644C219.378 291.644 219.682 291.71 219.968 291.842C220.258 291.97 220.494 292.152 220.679 292.389C220.866 292.622 221.012 292.905 221.117 293.237C221.223 293.569 221.275 293.924 221.275 294.302C221.275 295.2 221.053 295.894 220.609 296.384C220.166 296.873 219.633 297.118 219.012 297.118C218.394 297.118 217.909 296.86 217.557 296.344V297ZM217.547 294.342C217.547 294.97 217.632 295.424 217.803 295.703C218.083 296.16 218.461 296.388 218.938 296.388C219.326 296.388 219.661 296.221 219.944 295.885C220.226 295.547 220.368 295.044 220.368 294.376C220.368 293.693 220.231 293.188 219.958 292.862C219.689 292.537 219.362 292.374 218.977 292.374C218.589 292.374 218.254 292.543 217.971 292.882C217.688 293.217 217.547 293.704 217.547 294.342ZM228.569 297V296.339C228.237 296.859 227.749 297.118 227.104 297.118C226.687 297.118 226.302 297.003 225.95 296.773C225.602 296.543 225.331 296.222 225.137 295.811C224.946 295.397 224.851 294.922 224.851 294.386C224.851 293.863 224.938 293.39 225.112 292.966C225.286 292.539 225.548 292.211 225.896 291.985C226.245 291.758 226.634 291.644 227.065 291.644C227.381 291.644 227.662 291.712 227.908 291.846C228.155 291.978 228.355 292.151 228.51 292.364V289.77H229.393V297H228.569ZM225.763 294.386C225.763 295.057 225.904 295.558 226.187 295.89C226.47 296.222 226.804 296.388 227.188 296.388C227.576 296.388 227.905 296.231 228.175 295.915C228.447 295.596 228.584 295.111 228.584 294.46C228.584 293.743 228.446 293.217 228.17 292.882C227.894 292.547 227.553 292.379 227.149 292.379C226.754 292.379 226.424 292.54 226.158 292.862C225.895 293.185 225.763 293.693 225.763 294.386ZM234.379 295.313L235.296 295.427C235.151 295.963 234.883 296.379 234.492 296.675C234.101 296.97 233.601 297.118 232.993 297.118C232.227 297.118 231.619 296.883 231.168 296.413C230.721 295.94 230.497 295.277 230.497 294.426C230.497 293.545 230.724 292.861 231.178 292.374C231.632 291.888 232.22 291.644 232.944 291.644C233.644 291.644 234.216 291.883 234.66 292.359C235.104 292.836 235.325 293.507 235.325 294.371C235.325 294.424 235.324 294.503 235.321 294.608H231.415C231.448 295.184 231.61 295.624 231.903 295.93C232.196 296.236 232.56 296.388 232.998 296.388C233.323 296.388 233.601 296.303 233.831 296.132C234.061 295.961 234.244 295.688 234.379 295.313ZM231.464 293.878H234.388C234.349 293.438 234.237 293.107 234.053 292.887C233.77 292.545 233.404 292.374 232.953 292.374C232.546 292.374 232.202 292.511 231.923 292.783C231.646 293.056 231.494 293.421 231.464 293.878ZM237.87 297L235.878 291.763H236.815L237.939 294.899C238.061 295.238 238.173 295.59 238.275 295.954C238.354 295.678 238.464 295.346 238.605 294.958L239.769 291.763H240.681L238.699 297H237.87ZM245.051 295.313L245.968 295.427C245.823 295.963 245.555 296.379 245.164 296.675C244.773 296.97 244.273 297.118 243.665 297.118C242.899 297.118 242.291 296.883 241.84 296.413C241.393 295.94 241.169 295.277 241.169 294.426C241.169 293.545 241.396 292.861 241.85 292.374C242.304 291.888 242.892 291.644 243.616 291.644C244.316 291.644 244.888 291.883 245.332 292.359C245.776 292.836 245.998 293.507 245.998 294.371C245.998 294.424 245.996 294.503 245.993 294.608H242.087C242.12 295.184 242.282 295.624 242.575 295.93C242.868 296.236 243.233 296.388 243.67 296.388C243.995 296.388 244.273 296.303 244.503 296.132C244.733 295.961 244.916 295.688 245.051 295.313ZM242.136 293.878H245.061C245.021 293.438 244.909 293.107 244.725 292.887C244.442 292.545 244.076 292.374 243.625 292.374C243.218 292.374 242.874 292.511 242.595 292.783C242.319 293.056 242.166 293.421 242.136 293.878ZM247.068 297V289.77H247.955V297H247.068ZM249.006 294.381C249.006 293.411 249.275 292.693 249.815 292.226C250.265 291.838 250.814 291.644 251.462 291.644C252.182 291.644 252.77 291.881 253.227 292.354C253.684 292.825 253.913 293.476 253.913 294.307C253.913 294.981 253.811 295.512 253.607 295.9C253.407 296.285 253.112 296.584 252.724 296.798C252.34 297.012 251.919 297.118 251.462 297.118C250.729 297.118 250.135 296.883 249.681 296.413C249.231 295.943 249.006 295.266 249.006 294.381ZM249.918 294.381C249.918 295.052 250.065 295.555 250.357 295.89C250.65 296.222 251.018 296.388 251.462 296.388C251.902 296.388 252.269 296.221 252.562 295.885C252.854 295.55 253 295.039 253 294.352C253 293.704 252.853 293.214 252.557 292.882C252.264 292.547 251.899 292.379 251.462 292.379C251.018 292.379 250.65 292.545 250.357 292.877C250.065 293.209 249.918 293.711 249.918 294.381ZM254.958 299.007V291.763H255.767V292.443C255.958 292.177 256.173 291.978 256.413 291.846C256.653 291.712 256.944 291.644 257.286 291.644C257.733 291.644 258.128 291.759 258.47 291.989C258.812 292.22 259.07 292.545 259.244 292.966C259.418 293.383 259.505 293.842 259.505 294.342C259.505 294.878 259.408 295.361 259.214 295.792C259.024 296.219 258.744 296.548 258.376 296.778C258.011 297.005 257.626 297.118 257.222 297.118C256.926 297.118 256.66 297.056 256.423 296.931C256.19 296.806 255.997 296.648 255.846 296.458V299.007H254.958ZM255.762 294.411C255.762 295.085 255.899 295.583 256.172 295.905C256.444 296.227 256.775 296.388 257.163 296.388C257.557 296.388 257.894 296.222 258.174 295.89C258.457 295.555 258.598 295.037 258.598 294.337C258.598 293.669 258.46 293.17 258.184 292.838C257.911 292.506 257.584 292.34 257.202 292.34C256.824 292.34 256.489 292.517 256.196 292.872C255.907 293.224 255.762 293.737 255.762 294.411ZM264.166 295.313L265.083 295.427C264.938 295.963 264.67 296.379 264.279 296.675C263.888 296.97 263.388 297.118 262.78 297.118C262.014 297.118 261.406 296.883 260.955 296.413C260.508 295.94 260.285 295.277 260.285 294.426C260.285 293.545 260.511 292.861 260.965 292.374C261.419 291.888 262.007 291.644 262.731 291.644C263.431 291.644 264.003 291.883 264.447 292.359C264.891 292.836 265.113 293.507 265.113 294.371C265.113 294.424 265.111 294.503 265.108 294.608H261.202C261.235 295.184 261.397 295.624 261.69 295.93C261.983 296.236 262.348 296.388 262.785 296.388C263.11 296.388 263.388 296.303 263.618 296.132C263.848 295.961 264.031 295.688 264.166 295.313ZM261.251 293.878H264.176C264.136 293.438 264.024 293.107 263.84 292.887C263.557 292.545 263.191 292.374 262.74 292.374C262.333 292.374 261.989 292.511 261.71 292.783C261.434 293.056 261.281 293.421 261.251 293.878ZM266.193 297V291.763H266.992V292.557C267.195 292.185 267.383 291.94 267.554 291.822C267.728 291.703 267.919 291.644 268.126 291.644C268.425 291.644 268.729 291.74 269.038 291.93L268.732 292.754C268.515 292.626 268.298 292.562 268.081 292.562C267.887 292.562 267.713 292.621 267.559 292.739C267.404 292.854 267.294 293.015 267.228 293.222C267.13 293.538 267.08 293.883 267.08 294.258V297H266.193Z" fill="white"/>
<rect x="156" y="212" width="150" height="75" fill="#52796F"/>
<path d="M224.438 233.988V277H215.605V233.988H224.438ZM237.672 233.988V240.93H202.577V233.988H237.672ZM250.493 231.625V277H241.985V231.625H250.493ZM249.282 259.896H246.948C246.968 257.67 247.263 255.622 247.834 253.751C248.405 251.861 249.223 250.226 250.286 248.847C251.35 247.449 252.62 246.366 254.097 245.598C255.594 244.83 257.248 244.446 259.06 244.446C260.635 244.446 262.063 244.672 263.343 245.125C264.643 245.559 265.756 246.267 266.681 247.252C267.627 248.217 268.355 249.487 268.867 251.063C269.379 252.639 269.635 254.549 269.635 256.794V277H261.069V256.735C261.069 255.317 260.862 254.204 260.448 253.397C260.054 252.57 259.473 251.989 258.705 251.654C257.957 251.299 257.031 251.122 255.928 251.122C254.707 251.122 253.664 251.349 252.797 251.802C251.95 252.254 251.271 252.885 250.759 253.692C250.247 254.48 249.873 255.406 249.636 256.469C249.4 257.532 249.282 258.675 249.282 259.896ZM285.085 245.037V277H276.548V245.037H285.085ZM276.016 236.706C276.016 235.465 276.45 234.441 277.316 233.634C278.183 232.826 279.345 232.423 280.802 232.423C282.24 232.423 283.392 232.826 284.258 233.634C285.145 234.441 285.588 235.465 285.588 236.706C285.588 237.947 285.145 238.971 284.258 239.778C283.392 240.586 282.24 240.99 280.802 240.99C279.345 240.99 278.183 240.586 277.316 239.778C276.45 238.971 276.016 237.947 276.016 236.706ZM300.447 251.861V277H291.939V245.037H299.915L300.447 251.861ZM299.206 259.896H296.902C296.902 257.532 297.207 255.406 297.818 253.515C298.428 251.605 299.285 249.98 300.388 248.641C301.491 247.282 302.8 246.248 304.317 245.539C305.853 244.81 307.566 244.446 309.457 244.446C310.954 244.446 312.322 244.662 313.563 245.096C314.804 245.529 315.867 246.218 316.753 247.164C317.659 248.109 318.349 249.359 318.821 250.915C319.314 252.471 319.56 254.372 319.56 256.617V277H310.993V256.587C310.993 255.169 310.796 254.066 310.402 253.279C310.008 252.491 309.427 251.939 308.659 251.624C307.911 251.289 306.985 251.122 305.882 251.122C304.74 251.122 303.746 251.349 302.899 251.802C302.072 252.254 301.382 252.885 300.831 253.692C300.299 254.48 299.895 255.406 299.62 256.469C299.344 257.532 299.206 258.675 299.206 259.896ZM334.33 231.625V277H325.823V231.625H334.33ZM333.119 259.896H330.785C330.805 257.67 331.101 255.622 331.672 253.751C332.243 251.861 333.06 250.226 334.124 248.847C335.187 247.449 336.457 246.366 337.934 245.598C339.431 244.83 341.085 244.446 342.897 244.446C344.473 244.446 345.901 244.672 347.181 245.125C348.48 245.559 349.593 246.267 350.519 247.252C351.464 248.217 352.193 249.487 352.705 251.063C353.217 252.639 353.473 254.549 353.473 256.794V277H344.906V256.735C344.906 255.317 344.699 254.204 344.286 253.397C343.892 252.57 343.311 251.989 342.543 251.654C341.794 251.299 340.869 251.122 339.766 251.122C338.545 251.122 337.501 251.349 336.635 251.802C335.788 252.254 335.108 252.885 334.596 253.692C334.084 254.48 333.71 255.406 333.474 256.469C333.237 257.532 333.119 258.675 333.119 259.896Z" fill="white"/>
</svg>
