<svg width="201" height="88" viewBox="0 0 201 88" fill="none" xmlns="http://www.w3.org/2000/svg">
<path d="M47.1416 85L45.2232 77.7702H46.2046L47.3043 82.5095C47.4227 83.006 47.5246 83.4991 47.6101 83.989C47.7942 83.2164 47.9027 82.7709 47.9356 82.6525L49.3115 77.7702H50.4655L51.5012 81.4295C51.7609 82.3369 51.9483 83.1901 52.0634 83.989C52.1554 83.532 52.2754 83.0076 52.4234 82.4158L53.5577 77.7702H54.5193L52.5368 85H51.6146L50.0907 79.4914C49.9625 79.0311 49.8869 78.7483 49.8639 78.6431C49.7882 78.9752 49.7176 79.2579 49.6518 79.4914L48.1181 85H47.1416ZM58.7014 83.3134L59.6187 83.4268C59.474 83.9627 59.206 84.3786 58.8148 84.6745C58.4236 84.9704 57.9238 85.1184 57.3156 85.1184C56.5495 85.1184 55.9413 84.8833 55.4909 84.4131C55.0437 83.9397 54.8202 83.2772 54.8202 82.4257C54.8202 81.5446 55.047 80.8607 55.5007 80.3741C55.9544 79.8875 56.543 79.6442 57.2663 79.6442C57.9666 79.6442 58.5386 79.8826 58.9825 80.3593C59.4263 80.8361 59.6482 81.5068 59.6482 82.3714C59.6482 82.424 59.6466 82.5029 59.6433 82.6082H55.7375C55.7703 83.1835 55.9331 83.6241 56.2257 83.9298C56.5183 84.2356 56.8832 84.3885 57.3205 84.3885C57.646 84.3885 57.9238 84.303 58.154 84.132C58.3841 83.9611 58.5666 83.6882 58.7014 83.3134ZM55.7868 81.8783H58.7112C58.6718 81.4377 58.56 81.1073 58.3759 80.887C58.0931 80.5451 57.7265 80.3741 57.2761 80.3741C56.8684 80.3741 56.5249 80.5106 56.2454 80.7834C55.9692 81.0563 55.8164 81.4213 55.7868 81.8783ZM61.5568 85H60.7332V77.7702H61.6209V80.3495C61.9957 79.8793 62.4741 79.6442 63.056 79.6442C63.3782 79.6442 63.6823 79.71 63.9684 79.8415C64.2577 79.9697 64.4944 80.1522 64.6785 80.3889C64.8659 80.6223 65.0122 80.9051 65.1174 81.2372C65.2226 81.5692 65.2752 81.9243 65.2752 82.3024C65.2752 83.2 65.0533 83.8937 64.6095 84.3835C64.1656 84.8734 63.633 85.1184 63.0116 85.1184C62.3935 85.1184 61.9086 84.8603 61.5568 84.3441V85ZM61.5469 82.3418C61.5469 82.9698 61.6324 83.4235 61.8034 83.703C62.0828 84.16 62.4609 84.3885 62.9376 84.3885C63.3256 84.3885 63.661 84.2208 63.9437 83.8854C64.2265 83.5468 64.3678 83.0438 64.3678 82.3764C64.3678 81.6925 64.2314 81.1878 63.9585 80.8624C63.6889 80.5369 63.3618 80.3741 62.9771 80.3741C62.5891 80.3741 62.2538 80.5434 61.971 80.8821C61.6883 81.2174 61.5469 81.704 61.5469 82.3418ZM72.5691 85V84.3392C72.2371 84.8586 71.7488 85.1184 71.1044 85.1184C70.6869 85.1184 70.3022 85.0033 69.9504 84.7731C69.6019 84.543 69.3307 84.2224 69.1367 83.8115C68.946 83.3972 68.8507 82.9221 68.8507 82.3862C68.8507 81.8635 68.9378 81.39 69.1121 80.9659C69.2863 80.5385 69.5477 80.2114 69.8962 79.9845C70.2447 79.7577 70.6343 79.6442 71.065 79.6442C71.3806 79.6442 71.6617 79.7116 71.9083 79.8464C72.1549 79.9779 72.3554 80.1506 72.51 80.3643V77.7702H73.3927V85H72.5691ZM69.763 82.3862C69.763 83.0569 69.9044 83.5583 70.1872 83.8904C70.4699 84.2224 70.8036 84.3885 71.1883 84.3885C71.5762 84.3885 71.905 84.2307 72.1746 83.915C72.4475 83.5961 72.5839 83.1112 72.5839 82.4602C72.5839 81.7435 72.4459 81.2174 72.1697 80.8821C71.8935 80.5467 71.5532 80.3791 71.1488 80.3791C70.7543 80.3791 70.4239 80.5402 70.1576 80.8624C69.8945 81.1846 69.763 81.6925 69.763 82.3862ZM78.3786 83.3134L79.2959 83.4268C79.1512 83.9627 78.8833 84.3786 78.492 84.6745C78.1008 84.9704 77.6011 85.1184 76.9928 85.1184C76.2268 85.1184 75.6185 84.8833 75.1681 84.4131C74.721 83.9397 74.4974 83.2772 74.4974 82.4257C74.4974 81.5446 74.7243 80.8607 75.178 80.3741C75.6317 79.8875 76.2202 79.6442 76.9435 79.6442C77.6438 79.6442 78.2159 79.8826 78.6597 80.3593C79.1036 80.8361 79.3255 81.5068 79.3255 82.3714C79.3255 82.424 79.3238 82.5029 79.3206 82.6082H75.4147C75.4476 83.1835 75.6103 83.6241 75.9029 83.9298C76.1955 84.2356 76.5605 84.3885 76.9978 84.3885C77.3232 84.3885 77.6011 84.303 77.8312 84.132C78.0613 83.9611 78.2438 83.6882 78.3786 83.3134ZM75.464 81.8783H78.3885C78.349 81.4377 78.2372 81.1073 78.0531 80.887C77.7704 80.5451 77.4038 80.3741 76.9534 80.3741C76.5457 80.3741 76.2021 80.5106 75.9227 80.7834C75.6465 81.0563 75.4936 81.4213 75.464 81.8783ZM81.8702 85L79.8778 79.7626H80.8148L81.9393 82.8991C82.0609 83.2378 82.1727 83.5896 82.2746 83.9545C82.3535 83.6783 82.4637 83.3463 82.605 82.9583L83.7689 79.7626H84.6813L82.6987 85H81.8702ZM89.0507 83.3134L89.968 83.4268C89.8233 83.9627 89.5554 84.3786 89.1641 84.6745C88.7729 84.9704 88.2731 85.1184 87.6649 85.1184C86.8988 85.1184 86.2906 84.8833 85.8402 84.4131C85.3931 83.9397 85.1695 83.2772 85.1695 82.4257C85.1695 81.5446 85.3963 80.8607 85.85 80.3741C86.3038 79.8875 86.8923 79.6442 87.6156 79.6442C88.3159 79.6442 88.8879 79.8826 89.3318 80.3593C89.7756 80.8361 89.9976 81.5068 89.9976 82.3714C89.9976 82.424 89.9959 82.5029 89.9926 82.6082H86.0868C86.1196 83.1835 86.2824 83.6241 86.575 83.9298C86.8676 84.2356 87.2326 84.3885 87.6698 84.3885C87.9953 84.3885 88.2731 84.303 88.5033 84.132C88.7334 83.9611 88.9159 83.6882 89.0507 83.3134ZM86.1361 81.8783H89.0605C89.0211 81.4377 88.9093 81.1073 88.7252 80.887C88.4424 80.5451 88.0759 80.3741 87.6254 80.3741C87.2178 80.3741 86.8742 80.5106 86.5947 80.7834C86.3186 81.0563 86.1657 81.4213 86.1361 81.8783ZM91.0677 85V77.7702H91.9554V85H91.0677ZM93.0059 82.3813C93.0059 81.4114 93.2755 80.693 93.8147 80.2262C94.2651 79.8382 94.8141 79.6442 95.4618 79.6442C96.1818 79.6442 96.7703 79.881 97.2273 80.3544C97.6843 80.8245 97.9128 81.4755 97.9128 82.3073C97.9128 82.9813 97.8109 83.5123 97.6071 83.9002C97.4065 84.2849 97.1123 84.5841 96.7243 84.7978C96.3397 85.0115 95.9188 85.1184 95.4618 85.1184C94.7286 85.1184 94.1352 84.8833 93.6815 84.4131C93.2311 83.943 93.0059 83.2657 93.0059 82.3813ZM93.9182 82.3813C93.9182 83.052 94.0645 83.555 94.3571 83.8904C94.6497 84.2224 95.018 84.3885 95.4618 84.3885C95.9024 84.3885 96.269 84.2208 96.5616 83.8854C96.8542 83.5501 97.0005 83.0389 97.0005 82.3517C97.0005 81.704 96.8525 81.2141 96.5566 80.8821C96.264 80.5467 95.8991 80.3791 95.4618 80.3791C95.018 80.3791 94.6497 80.5451 94.3571 80.8771C94.0645 81.2092 93.9182 81.7106 93.9182 82.3813ZM98.9584 87.0072V79.7626H99.7671V80.4432C99.9578 80.1769 100.173 79.9779 100.413 79.8464C100.653 79.7116 100.944 79.6442 101.286 79.6442C101.733 79.6442 102.128 79.7593 102.47 79.9895C102.812 80.2196 103.07 80.5451 103.244 80.9659C103.418 81.3835 103.505 81.8421 103.505 82.3418C103.505 82.8778 103.408 83.3611 103.214 83.7917C103.024 84.2192 102.744 84.5479 102.376 84.7781C102.011 85.0049 101.626 85.1184 101.222 85.1184C100.926 85.1184 100.66 85.0559 100.423 84.931C100.19 84.806 99.9973 84.6482 99.846 84.4575V87.0072H98.9584ZM99.7622 82.4109C99.7622 83.0849 99.8987 83.583 100.172 83.9052C100.444 84.2274 100.775 84.3885 101.163 84.3885C101.557 84.3885 101.894 84.2224 102.174 83.8904C102.457 83.555 102.598 83.0372 102.598 82.3369C102.598 81.6695 102.46 81.1698 102.184 80.8377C101.911 80.5056 101.584 80.3396 101.202 80.3396C100.824 80.3396 100.489 80.5171 100.196 80.8722C99.9069 81.224 99.7622 81.7369 99.7622 82.4109ZM108.166 83.3134L109.083 83.4268C108.938 83.9627 108.67 84.3786 108.279 84.6745C107.888 84.9704 107.388 85.1184 106.78 85.1184C106.014 85.1184 105.406 84.8833 104.955 84.4131C104.508 83.9397 104.285 83.2772 104.285 82.4257C104.285 81.5446 104.511 80.8607 104.965 80.3741C105.419 79.8875 106.007 79.6442 106.731 79.6442C107.431 79.6442 108.003 79.8826 108.447 80.3593C108.891 80.8361 109.113 81.5068 109.113 82.3714C109.113 82.424 109.111 82.5029 109.108 82.6082H105.202C105.235 83.1835 105.397 83.6241 105.69 83.9298C105.983 84.2356 106.348 84.3885 106.785 84.3885C107.11 84.3885 107.388 84.303 107.618 84.132C107.848 83.9611 108.031 83.6882 108.166 83.3134ZM105.251 81.8783H108.176C108.136 81.4377 108.024 81.1073 107.84 80.887C107.557 80.5451 107.191 80.3741 106.74 80.3741C106.333 80.3741 105.989 80.5106 105.71 80.7834C105.434 81.0563 105.281 81.4213 105.251 81.8783ZM110.193 85V79.7626H110.992V80.5566C111.195 80.1851 111.383 79.9401 111.554 79.8218C111.728 79.7034 111.919 79.6442 112.126 79.6442C112.425 79.6442 112.729 79.7396 113.038 79.9303L112.732 80.7539C112.515 80.6256 112.298 80.5615 112.081 80.5615C111.887 80.5615 111.713 80.6207 111.559 80.7391C111.404 80.8541 111.294 81.0152 111.228 81.2224C111.13 81.538 111.08 81.8832 111.08 82.258V85H110.193Z" fill="white"/>
<rect width="150" height="75" fill="#52796F"/>
<path d="M68.4377 21.9883V65H59.605V21.9883H68.4377ZM81.6721 21.9883V28.9304H46.5774V21.9883H81.6721ZM94.4929 19.625V65H85.9851V19.625H94.4929ZM93.2817 47.8958H90.948C90.9677 45.6703 91.2631 43.6222 91.8342 41.7512C92.4054 39.8606 93.2227 38.226 94.2861 36.8474C95.3496 35.4491 96.6199 34.366 98.0969 33.5979C99.5937 32.8298 101.248 32.4458 103.06 32.4458C104.635 32.4458 106.063 32.6723 107.343 33.1252C108.643 33.5585 109.756 34.2675 110.681 35.2522C111.627 36.2172 112.355 37.4875 112.867 39.063C113.379 40.6385 113.635 42.5488 113.635 44.7939V65H105.069V44.7349C105.069 43.3169 104.862 42.2042 104.448 41.3967C104.054 40.5696 103.473 39.9886 102.705 39.6538C101.957 39.2993 101.031 39.1221 99.9285 39.1221C98.7074 39.1221 97.6637 39.3486 96.7971 39.8015C95.9503 40.2545 95.2708 40.8847 94.7588 41.6921C94.2467 42.4799 93.8726 43.4055 93.6362 44.469C93.3999 45.5325 93.2817 46.6747 93.2817 47.8958ZM129.085 33.0366V65H120.548V33.0366H129.085ZM120.016 24.7061C120.016 23.4653 120.45 22.4412 121.316 21.6338C122.183 20.8263 123.345 20.4226 124.802 20.4226C126.24 20.4226 127.392 20.8263 128.258 21.6338C129.145 22.4412 129.588 23.4653 129.588 24.7061C129.588 25.9468 129.145 26.9709 128.258 27.7783C127.392 28.5858 126.24 28.9895 124.802 28.9895C123.345 28.9895 122.183 28.5858 121.316 27.7783C120.45 26.9709 120.016 25.9468 120.016 24.7061ZM144.447 39.8606V65H135.939V33.0366H143.915L144.447 39.8606ZM143.206 47.8958H140.902C140.902 45.5325 141.207 43.4055 141.818 41.5149C142.428 39.6046 143.285 37.9798 144.388 36.6406C145.491 35.2817 146.8 34.2478 148.317 33.5388C149.853 32.8101 151.566 32.4458 153.457 32.4458C154.954 32.4458 156.322 32.6624 157.563 33.0957C158.804 33.529 159.867 34.2183 160.753 35.1636C161.659 36.1089 162.349 37.3595 162.821 38.9153C163.314 40.4711 163.56 42.3716 163.56 44.6167V65H154.993V44.5872C154.993 43.1692 154.796 42.0663 154.402 41.2786C154.008 40.4908 153.427 39.9394 152.659 39.6243C151.911 39.2895 150.985 39.1221 149.882 39.1221C148.74 39.1221 147.746 39.3486 146.899 39.8015C146.072 40.2545 145.382 40.8847 144.831 41.6921C144.299 42.4799 143.895 43.4055 143.62 44.469C143.344 45.5325 143.206 46.6747 143.206 47.8958ZM178.33 19.625V65H169.823V19.625H178.33ZM177.119 47.8958H174.785C174.805 45.6703 175.101 43.6222 175.672 41.7512C176.243 39.8606 177.06 38.226 178.124 36.8474C179.187 35.4491 180.457 34.366 181.934 33.5979C183.431 32.8298 185.085 32.4458 186.897 32.4458C188.473 32.4458 189.901 32.6723 191.181 33.1252C192.48 33.5585 193.593 34.2675 194.519 35.2522C195.464 36.2172 196.193 37.4875 196.705 39.063C197.217 40.6385 197.473 42.5488 197.473 44.7939V65H188.906V44.7349C188.906 43.3169 188.699 42.2042 188.286 41.3967C187.892 40.5696 187.311 39.9886 186.543 39.6538C185.794 39.2993 184.869 39.1221 183.766 39.1221C182.545 39.1221 181.501 39.3486 180.635 39.8015C179.788 40.2545 179.108 40.8847 178.596 41.6921C178.084 42.4799 177.71 43.4055 177.474 44.469C177.237 45.5325 177.119 46.6747 177.119 47.8958Z" fill="white"/>
</svg>
