<svg width="512" height="512" viewBox="0 0 512 512" fill="none" xmlns="http://www.w3.org/2000/svg">
<rect width="512" height="512" fill="#52796F"/>
<path d="M183.855 130.172V379H132.757V130.172H183.855ZM260.418 130.172V170.333H57.3906V130.172H260.418ZM334.588 116.5V379H285.369V116.5H334.588ZM327.581 280.05H314.08C314.194 267.175 315.903 255.326 319.207 244.503C322.511 233.565 327.239 224.109 333.392 216.134C339.544 208.045 346.893 201.778 355.438 197.335C364.096 192.892 373.667 190.67 384.148 190.67C393.263 190.67 401.523 191.98 408.929 194.601C416.448 197.107 422.885 201.209 428.24 206.905C433.709 212.488 437.924 219.837 440.887 228.951C443.849 238.066 445.33 249.117 445.33 262.105V379H395.77V261.764C395.77 253.561 394.573 247.123 392.181 242.452C389.902 237.667 386.541 234.306 382.098 232.369C377.768 230.318 372.413 229.293 366.033 229.293C358.969 229.293 352.931 230.603 347.918 233.224C343.019 235.844 339.088 239.49 336.126 244.161C333.164 248.718 330.999 254.073 329.632 260.226C328.265 266.378 327.581 272.986 327.581 280.05Z" fill="white"/>
</svg>
